<svg width="74" height="74" viewBox="0 0 74 74" fill="none" xmlns="http://www.w3.org/2000/svg">
<g filter="url(#filter0_d)">
<rect x="10" y="6" width="54" height="54" rx="10" fill="white"/>
</g>
<path d="M36 25H29C28.4696 25 27.9609 25.2107 27.5858 25.5858C27.2107 25.9609 27 26.4696 27 27V41C27 41.5304 27.2107 42.0391 27.5858 42.4142C27.9609 42.7893 28.4696 43 29 43H43C43.5304 43 44.0391 42.7893 44.4142 42.4142C44.7893 42.0391 45 41.5304 45 41V34" stroke="#713BDB" stroke-width="2" stroke-linecap="round" stroke-linejoin="round"/>
<path d="M43.5 23.5C43.8978 23.1022 44.4374 22.8787 45 22.8787C45.5626 22.8787 46.1022 23.1022 46.5 23.5C46.8978 23.8978 47.1213 24.4374 47.1213 25C47.1213 25.5626 46.8978 26.1022 46.5 26.5L37 36L33 37L34 33L43.5 23.5Z" stroke="#713BDB" stroke-width="2" stroke-linecap="round" stroke-linejoin="round"/>
<g filter="url(#filter1_d)">
<rect x="10" y="6" width="54" height="54" rx="10" fill="white"/>
</g>
<path d="M36 25H29C28.4696 25 27.9609 25.2107 27.5858 25.5858C27.2107 25.9609 27 26.4696 27 27V41C27 41.5304 27.2107 42.0391 27.5858 42.4142C27.9609 42.7893 28.4696 43 29 43H43C43.5304 43 44.0391 42.7893 44.4142 42.4142C44.7893 42.0391 45 41.5304 45 41V34" stroke="#713BDB" stroke-width="2" stroke-linecap="round" stroke-linejoin="round"/>
<path d="M43.5 23.5C43.8978 23.1022 44.4374 22.8787 45 22.8787C45.5626 22.8787 46.1022 23.1022 46.5 23.5C46.8978 23.8978 47.1213 24.4374 47.1213 25C47.1213 25.5626 46.8978 26.1022 46.5 26.5L37 36L33 37L34 33L43.5 23.5Z" stroke="#713BDB" stroke-width="2" stroke-linecap="round" stroke-linejoin="round"/>
<defs>
<filter id="filter0_d" x="0" y="0" width="74" height="74" filterUnits="userSpaceOnUse" color-interpolation-filters="sRGB">
<feFlood flood-opacity="0" result="BackgroundImageFix"/>
<feColorMatrix in="SourceAlpha" type="matrix" values="0 0 0 0 0 0 0 0 0 0 0 0 0 0 0 0 0 0 127 0"/>
<feOffset dy="4"/>
<feGaussianBlur stdDeviation="5"/>
<feColorMatrix type="matrix" values="0 0 0 0 0 0 0 0 0 0 0 0 0 0 0 0 0 0 0.05 0"/>
<feBlend mode="normal" in2="BackgroundImageFix" result="effect1_dropShadow"/>
<feBlend mode="normal" in="SourceGraphic" in2="effect1_dropShadow" result="shape"/>
</filter>
<filter id="filter1_d" x="0" y="0" width="74" height="74" filterUnits="userSpaceOnUse" color-interpolation-filters="sRGB">
<feFlood flood-opacity="0" result="BackgroundImageFix"/>
<feColorMatrix in="SourceAlpha" type="matrix" values="0 0 0 0 0 0 0 0 0 0 0 0 0 0 0 0 0 0 127 0"/>
<feOffset dy="4"/>
<feGaussianBlur stdDeviation="5"/>
<feColorMatrix type="matrix" values="0 0 0 0 0 0 0 0 0 0 0 0 0 0 0 0 0 0 0.05 0"/>
<feBlend mode="normal" in2="BackgroundImageFix" result="effect1_dropShadow"/>
<feBlend mode="normal" in="SourceGraphic" in2="effect1_dropShadow" result="shape"/>
</filter>
</defs>
</svg>
