<svg width="197" height="197" viewBox="0 0 197 197" fill="none" xmlns="http://www.w3.org/2000/svg">
<circle cx="98.5" cy="98.5" r="90.5" stroke="#6F52ED" stroke-width="15"/>
<path d="M173.748 148.779C163.804 163.662 149.67 175.261 133.133 182.111C116.596 188.961 98.3997 190.753 80.8444 187.261C63.2891 183.769 47.1635 175.15 34.5069 162.493C21.8502 149.837 13.2309 133.711 9.73897 116.156C6.24701 98.6004 8.03921 80.4039 14.8889 63.8672C21.7387 47.3304 33.3383 33.1963 48.2209 23.252C63.1036 13.3077 80.6008 8 98.5 8" stroke="#FFB800" stroke-width="15"/>
<path d="M9.73897 116.156C6.24701 98.6004 8.03921 80.4039 14.8889 63.8672C21.7387 47.3304 33.3383 33.1963 48.2209 23.252C63.1036 13.3077 80.6008 8 98.5 8" stroke="#33D69F" stroke-width="15"/>
<path d="M28.0585 41.6824C15.4377 57.3294 8.38585 76.733 8.01538 96.8321C7.64491 116.931 13.9769 136.582 26.0125 152.683" stroke="#FF4C61" stroke-width="15"/>
<g filter="url(#filter0_d)">
<circle cx="98.5" cy="98.5" r="51.5" fill="white"/>
</g>
<g clip-path="url(#clip0)">
<path d="M114.405 93.4409L98.9361 86.2222C98.6601 86.0933 98.3399 86.0933 98.064 86.2222L82.5952 93.4409C82.2316 93.6101 82 93.9746 82 94.3755V104.688H84.0625V95.9947L86.1249 96.9572V106.75C86.1249 107.216 86.4361 107.623 86.8853 107.745L98.2291 110.839C98.3177 110.863 98.4083 110.875 98.5 110.875C98.5916 110.875 98.6822 110.863 98.7709 110.839L110.115 107.745C110.564 107.623 110.875 107.216 110.875 106.75V96.9572L114.405 95.31C114.768 95.1409 115 94.7763 115 94.3755C115 93.9746 114.768 93.6101 114.405 93.4409ZM108.813 105.963L98.5 108.775L88.1875 105.963V97.9198L98.0639 102.529C98.2019 102.593 98.3509 102.626 98.5 102.626C98.649 102.626 98.798 102.593 98.936 102.529L108.812 97.9198C108.813 97.9197 108.813 105.963 108.813 105.963ZM98.5 100.456L85.4694 94.3755L98.5 88.2947L111.531 94.3755L98.5 100.456Z" fill="#969CBA"/>
</g>
<defs>
<filter id="filter0_d" x="27" y="37" width="143" height="143" filterUnits="userSpaceOnUse" color-interpolation-filters="sRGB">
<feFlood flood-opacity="0" result="BackgroundImageFix"/>
<feColorMatrix in="SourceAlpha" type="matrix" values="0 0 0 0 0 0 0 0 0 0 0 0 0 0 0 0 0 0 127 0"/>
<feOffset dy="10"/>
<feGaussianBlur stdDeviation="10"/>
<feColorMatrix type="matrix" values="0 0 0 0 0 0 0 0 0 0 0 0 0 0 0 0 0 0 0.05 0"/>
<feBlend mode="normal" in2="BackgroundImageFix" result="effect1_dropShadow"/>
<feBlend mode="normal" in="SourceGraphic" in2="effect1_dropShadow" result="shape"/>
</filter>
<clipPath id="clip0">
<rect width="33" height="33" fill="white" transform="translate(82 82)"/>
</clipPath>
</defs>
</svg>
